<svg id="visual" viewBox="0 0 900 600" width="900" height="600" xmlns="http://www.w3.org/2000/svg" xmlns:xlink="http://www.w3.org/1999/xlink" version="1.1"><rect x="0" y="0" width="900" height="600" fill="#0a1709"></rect><path d="M0 275L21.5 267.3C43 259.7 86 244.3 128.8 239C171.7 233.7 214.3 238.3 257.2 252.3C300 266.3 343 289.7 385.8 300.7C428.7 311.7 471.3 310.3 514.2 303.7C557 297 600 285 642.8 276C685.7 267 728.3 261 771.2 265.2C814 269.3 857 283.7 878.5 290.8L900 298L900 601L878.5 601C857 601 814 601 771.2 601C728.3 601 685.7 601 642.8 601C600 601 557 601 514.2 601C471.3 601 428.7 601 385.8 601C343 601 300 601 257.2 601C214.3 601 171.7 601 128.8 601C86 601 43 601 21.5 601L0 601Z" fill="#041813"></path><path d="M0 295L21.5 292.8C43 290.7 86 286.3 128.8 293.5C171.7 300.7 214.3 319.3 257.2 335C300 350.7 343 363.3 385.8 366C428.7 368.7 471.3 361.3 514.2 357.8C557 354.3 600 354.7 642.8 353.5C685.7 352.3 728.3 349.7 771.2 340.2C814 330.7 857 314.3 878.5 306.2L900 298L900 601L878.5 601C857 601 814 601 771.2 601C728.3 601 685.7 601 642.8 601C600 601 557 601 514.2 601C471.3 601 428.7 601 385.8 601C343 601 300 601 257.2 601C214.3 601 171.7 601 128.8 601C86 601 43 601 21.5 601L0 601Z" fill="#182922"></path><path d="M0 347L21.5 344.8C43 342.7 86 338.3 128.8 340.8C171.7 343.3 214.3 352.7 257.2 362.5C300 372.3 343 382.7 385.8 377.8C428.7 373 471.3 353 514.2 344.8C557 336.7 600 340.3 642.8 346.2C685.7 352 728.3 360 771.2 373.2C814 386.3 857 404.7 878.5 413.8L900 423L900 601L878.5 601C857 601 814 601 771.2 601C728.3 601 685.7 601 642.8 601C600 601 557 601 514.2 601C471.3 601 428.7 601 385.8 601C343 601 300 601 257.2 601C214.3 601 171.7 601 128.8 601C86 601 43 601 21.5 601L0 601Z" fill="#2a3b32"></path><path d="M0 447L21.5 449C43 451 86 455 128.8 457.5C171.7 460 214.3 461 257.2 450.3C300 439.7 343 417.3 385.8 416.8C428.7 416.3 471.3 437.7 514.2 437.5C557 437.3 600 415.7 642.8 414.8C685.7 414 728.3 434 771.2 445C814 456 857 458 878.5 459L900 460L900 601L878.5 601C857 601 814 601 771.2 601C728.3 601 685.7 601 642.8 601C600 601 557 601 514.2 601C471.3 601 428.7 601 385.8 601C343 601 300 601 257.2 601C214.3 601 171.7 601 128.8 601C86 601 43 601 21.5 601L0 601Z" fill="#3c4e42"></path><path d="M0 497L21.5 497C43 497 86 497 128.8 496C171.7 495 214.3 493 257.2 495.2C300 497.3 343 503.7 385.8 506.5C428.7 509.3 471.3 508.7 514.2 502.2C557 495.7 600 483.3 642.8 474.3C685.7 465.3 728.3 459.7 771.2 459.3C814 459 857 464 878.5 466.5L900 469L900 601L878.5 601C857 601 814 601 771.2 601C728.3 601 685.7 601 642.8 601C600 601 557 601 514.2 601C471.3 601 428.7 601 385.8 601C343 601 300 601 257.2 601C214.3 601 171.7 601 128.8 601C86 601 43 601 21.5 601L0 601Z" fill="#506253"></path><path d="M0 529L21.5 524.8C43 520.7 86 512.3 128.8 516.8C171.7 521.3 214.3 538.7 257.2 539.2C300 539.7 343 523.3 385.8 517.2C428.7 511 471.3 515 514.2 516.5C557 518 600 517 642.8 519.2C685.7 521.3 728.3 526.7 771.2 525.5C814 524.3 857 516.7 878.5 512.8L900 509L900 601L878.5 601C857 601 814 601 771.2 601C728.3 601 685.7 601 642.8 601C600 601 557 601 514.2 601C471.3 601 428.7 601 385.8 601C343 601 300 601 257.2 601C214.3 601 171.7 601 128.8 601C86 601 43 601 21.5 601L0 601Z" fill="#657665"></path></svg>